<svg width="340" height="100" viewBox="0 0 340 100" fill="none" xmlns="http://www.w3.org/2000/svg">
<path d="M180.164 33.0338C180.164 32.7673 180.058 32.5117 179.87 32.3233C179.682 32.1348 179.426 32.029 179.16 32.029H174.135C171.605 31.9029 169.128 32.7834 167.246 34.4779C165.363 36.1724 164.227 38.5433 164.087 41.0725V46.4986H159.063C158.796 46.4986 158.541 46.6044 158.352 46.7929C158.164 46.9813 158.058 47.2369 158.058 47.5034V52.7285C158.058 52.995 158.164 53.2506 158.352 53.4391C158.541 53.6275 158.796 53.7334 159.063 53.7334H164.087V67.1982C164.087 67.4647 164.193 67.7202 164.381 67.9087C164.57 68.0971 164.825 68.203 165.092 68.203H171.121C171.387 68.203 171.643 68.0971 171.831 67.9087C172.02 67.7202 172.126 67.4647 172.126 67.1982V53.7334H177.391C177.614 53.7366 177.833 53.6652 178.011 53.5305C178.189 53.3959 178.318 53.2056 178.376 52.9898L179.823 47.7647C179.863 47.6162 179.868 47.4605 179.838 47.3097C179.809 47.1588 179.745 47.0167 179.652 46.8944C179.559 46.7721 179.439 46.6728 179.301 46.6042C179.163 46.5356 179.012 46.4994 178.858 46.4986H172.126V41.0725C172.176 40.575 172.409 40.1141 172.781 39.7796C173.152 39.4452 173.635 39.2613 174.135 39.2638H179.16C179.426 39.2638 179.682 39.1579 179.87 38.9695C180.058 38.781 180.164 38.5254 180.164 38.2589V33.0338Z" fill="white"/>
<path d="M50.116 59.8344C56.0354 59.8344 60.8342 55.0356 60.8342 49.1162C60.8342 43.1967 56.0354 38.3979 50.116 38.3979C44.1965 38.3979 39.3978 43.1967 39.3978 49.1162C39.3978 55.0356 44.1965 59.8344 50.116 59.8344Z" stroke="white" stroke-width="4.01933" stroke-linecap="round" stroke-linejoin="round"/>
<path d="M26 59.8342V38.3978C26 30.9984 31.9984 25 39.3978 25H60.8342C68.2336 25 74.232 30.9984 74.232 38.3978V59.8342C74.232 67.2336 68.2336 73.232 60.8342 73.232H39.3978C31.9984 73.232 26 67.2336 26 59.8342Z" stroke="white" stroke-width="4.01933"/>
<path d="M64.8536 34.4057L64.8804 34.376" stroke="white" stroke-width="4.01933" stroke-linecap="round" stroke-linejoin="round"/>
<path d="M282.238 66.1928C285.21 66.2923 288.171 65.795 290.947 64.7304C293.724 63.6658 296.258 62.0555 298.402 59.9946C300.545 57.9338 302.253 55.4642 303.426 52.7318C304.599 49.9995 305.212 47.0598 305.229 44.0865C306.591 42.4012 307.602 40.4607 308.203 38.379C308.248 38.2146 308.244 38.0406 308.193 37.8782C308.141 37.7157 308.043 37.5717 307.912 37.4634C307.78 37.355 307.62 37.2871 307.45 37.2677C307.281 37.2483 307.11 37.2783 306.957 37.3541C306.245 37.6971 305.442 37.8078 304.664 37.6708C303.885 37.5338 303.169 37.1559 302.616 36.5904C301.911 35.8179 301.057 35.1948 300.107 34.7581C299.156 34.3214 298.127 34.0799 297.081 34.0481C296.036 34.0162 294.994 34.1946 294.019 34.5726C293.043 34.9506 292.153 35.5206 291.402 36.2488C290.374 37.2449 289.62 38.4901 289.215 39.8635C288.81 41.2369 288.768 42.6917 289.091 44.0865C282.359 44.4884 277.736 41.293 274.039 36.912C273.928 36.7862 273.782 36.6954 273.62 36.6509C273.459 36.6063 273.287 36.6098 273.128 36.6609C272.968 36.7121 272.826 36.8087 272.72 36.9389C272.614 37.0691 272.549 37.2274 272.531 37.3943C271.827 41.3019 272.335 45.3316 273.988 48.942C275.64 52.5524 278.358 55.5707 281.776 57.5914C279.484 60.2197 276.266 61.8613 272.793 62.1735C272.607 62.2043 272.435 62.2926 272.301 62.4259C272.168 62.5592 272.08 62.7309 272.049 62.917C272.018 63.103 272.046 63.2941 272.128 63.4635C272.211 63.6329 272.345 63.7721 272.511 63.8616C275.533 65.3716 278.86 66.1691 282.238 66.1928Z" fill="white"/>
<circle cx="50" cy="50" r="49.25" stroke="white" stroke-width="1.5"/>
<circle cx="170" cy="50" r="49.25" stroke="white" stroke-width="1.5"/>
<circle cx="290" cy="50" r="49.25" stroke="white" stroke-width="1.5"/>
</svg>
